<svg width="26" height="26" viewBox="0 0 26 26" fill="none" xmlns="http://www.w3.org/2000/svg">
<path d="M23.1882 17.5082C23.0099 18.8632 22.3444 20.107 21.3161 21.0073C20.2878 21.9075 18.9669 22.4026 17.6002 22.4002C9.6602 22.4002 3.2002 15.9402 3.2002 8.00019C3.19775 6.63348 3.69289 5.31261 4.59314 4.28428C5.49338 3.25596 6.73717 2.59049 8.0922 2.41219C8.43486 2.37035 8.78185 2.44045 9.08139 2.61203C9.38093 2.7836 9.61694 3.04745 9.7542 3.36419L11.8662 8.07919V8.09119C11.9713 8.33364 12.0147 8.59835 11.9925 8.86166C11.9704 9.12498 11.8833 9.37871 11.7392 9.60019C11.7212 9.62719 11.7022 9.65219 11.6822 9.67719L9.6002 12.1452C10.3492 13.6672 11.9412 15.2452 13.4832 15.9962L15.9172 13.9252C15.9411 13.9051 15.9661 13.8864 15.9922 13.8692C16.2135 13.7216 16.4681 13.6315 16.733 13.607C16.9978 13.5826 17.2646 13.6246 17.5092 13.7292L17.5222 13.7352L22.2332 15.8462C22.5505 15.983 22.815 16.2188 22.9871 16.5183C23.1593 16.8179 23.2298 17.1652 23.1882 17.5082Z" fill="#071E2F"/>
</svg>
