<svg width="81" height="63" viewBox="0 0 81 63" fill="none" xmlns="http://www.w3.org/2000/svg">
<g clip-path="url(#clip0_910_268)">
<path d="M73.4987 24.1118V28.2298C73.4987 30.6378 72.9582 32.6693 70.5097 32.6693C69.0392 32.6693 68.0197 31.6503 68.0197 29.8513V26.9917C68.0197 24.6522 66.8697 23.6538 64.6612 24.1118V25.7617C65.5297 25.6117 65.9812 25.8712 65.9812 27.1707V30.2487C65.9812 32.7387 67.4517 34.4283 70.1402 34.4283C70.7789 34.4389 71.4125 34.3132 71.9988 34.0597C72.5851 33.8061 73.1106 33.4304 73.5402 32.9577V34.2778C73.5402 37.0073 72.2202 37.4857 70.2022 37.4857C68.8867 37.4647 67.5975 37.1144 66.4522 36.4668L65.8022 38.0262C67.2023 38.8456 68.7971 39.2732 70.4193 39.2643C72.9297 39.2643 75.5287 38.1832 75.5287 34.1752V24.1187H73.4972L73.4987 24.1118ZM52.5537 31.6087V28.2708C52.5537 25.6033 51.0537 23.9133 48.7437 23.9133C48.0014 23.8796 47.2629 24.0374 46.5993 24.3717C45.9356 24.7059 45.3691 25.2053 44.9542 25.8217C44.6637 25.23 44.2082 24.735 43.6426 24.3964C43.077 24.0577 42.4255 23.89 41.7667 23.9133C41.0674 23.8952 40.3741 24.0477 39.7469 24.3575C39.1197 24.6674 38.5773 25.1253 38.1667 25.6918C37.7767 24.1918 36.6072 23.8038 34.7167 24.1118V25.8423C35.8667 25.6923 36.3667 25.9722 36.3667 27.1212V34.5502H38.4052V28.6353C38.4052 26.8568 39.5337 25.7077 41.2052 25.7077C42.7052 25.7077 43.4552 26.7473 43.4552 28.4783V34.5457H45.4732V28.6062C45.4567 28.2279 45.5177 27.8503 45.6524 27.4964C45.7871 27.1425 45.9927 26.8198 46.2566 26.5483C46.5205 26.2767 46.837 26.0619 47.1869 25.9171C47.5368 25.7723 47.9126 25.7006 48.2912 25.7063C49.7207 25.7063 50.5212 26.6563 50.5212 28.3943V31.6022C50.5212 34.0922 51.6292 34.9402 54.0507 34.5522V32.9023C53.0317 33.0393 52.5507 32.7793 52.5507 31.6093M29.7002 25.5417C31.1092 25.5417 32.1287 26.1027 32.1287 27.2312C32.1287 28.5312 30.8087 28.9413 28.6402 28.9413C27.9012 28.9413 27.0602 28.8727 26.1502 28.8112C26.3417 26.9507 27.5732 25.5417 29.7002 25.5417ZM29.9192 32.9702C28.0312 32.9702 26.6017 32.1203 26.2392 30.3298C27.0192 30.3708 27.7577 30.4187 28.4077 30.4187C32.0467 30.4187 34.1077 29.6187 34.1077 27.1687C34.1077 25.0892 32.2677 23.9187 29.7297 23.9187C26.9117 23.9187 24.0522 25.6768 24.0522 29.3363C24.0522 32.5863 26.2022 34.7538 29.7522 34.7538C31.1466 34.7801 32.5274 34.4755 33.7812 33.8647L33.3707 32.2648C32.2898 32.7603 31.1095 33.0013 29.9207 32.9693M16.7667 32.9487C14.5572 32.9487 13.4287 31.2387 13.4287 29.1987C13.4287 27.2487 14.5572 25.7103 16.7667 25.7103C19.0667 25.7103 20.0842 27.2287 20.0842 29.1987C20.0842 31.3487 19.0652 32.9487 16.7667 32.9487ZM22.0747 31.3073V19.3853H20.0157V25.3638C19.5981 24.8887 19.0802 24.5122 18.4994 24.2614C17.9186 24.0107 17.2895 23.8919 16.6572 23.9138C13.1482 23.9138 11.3697 26.3217 11.3697 29.2012C11.3697 32.1512 12.9292 34.7487 16.3497 34.7487C17.1084 34.7838 17.8638 34.6296 18.548 34.3C19.2322 33.9704 19.8237 33.4758 20.2692 32.8607C20.5497 34.5502 22.0272 34.8107 23.6892 34.5502V32.8197C22.3142 33.0197 22.0747 32.5598 22.0747 31.3083M7.60074 29.0303L11.1097 24.2007V24.1118H8.87973L6.32123 27.8192L3.78323 24.1118H1.50523V24.2007L4.99373 29.1187L1.13574 34.4688V34.5578H3.38574L6.31323 30.3988L9.24074 34.5578H11.5187V34.4688L7.60074 29.0303ZM63.7392 24.1393L59.3342 34.6597H58.1647L54.9772 27.0598L54.6897 26.3828C54.5732 26.1363 54.5117 25.9997 54.4502 25.8972C54.4227 25.8562 54.4002 25.8152 54.3752 25.7807C54.3475 25.7449 54.3178 25.7107 54.2862 25.6783C54.1415 25.5518 53.9715 25.4577 53.7875 25.4023C53.6035 25.3468 53.4097 25.3313 53.2192 25.3568V23.9818C53.6313 23.9058 54.0511 23.8807 54.4692 23.9068C54.6106 23.9172 54.7505 23.9423 54.8867 23.9818L54.9482 24.0023C54.9617 24.0093 54.9757 24.0092 54.9892 24.0157C55.0232 24.0292 55.0577 24.0432 55.0852 24.0567C55.1013 24.0649 55.118 24.0718 55.1352 24.0773C55.1474 24.0826 55.1589 24.0894 55.1692 24.0977C55.749 24.4391 56.1825 24.9822 56.3867 25.6232L58.7537 31.5813L61.8112 24.1458H63.7402L63.7392 24.1393Z" fill="#071D30"/>
<path d="M31.8956 62.4997C32.9355 60.9353 33.4725 59.0904 33.4346 57.2122C33.4707 55.285 32.9352 53.3903 31.8956 51.7672H32.5591C33.595 53.3963 34.1258 55.2956 34.0845 57.2257C34.1115 59.0963 33.5804 60.9324 32.5591 62.4997H31.8956ZM57.0746 58.3612V58.8947C57.0746 59.9687 57.3346 60.4407 57.8956 60.4407C58.4566 60.4407 58.7025 59.9907 58.7025 58.8812V58.3407C58.7025 57.4242 58.4836 56.8702 57.8885 56.8702C57.3415 56.8772 57.0746 57.3557 57.0746 58.3612ZM59.2771 58.3272V58.8812C59.2771 60.0852 58.935 60.9607 57.8815 60.9677C56.828 60.9747 56.5 60.1332 56.5 58.9017V58.3612C56.5 57.0682 57.0336 56.3572 57.9001 56.3572C58.7501 56.3572 59.2751 56.9727 59.2751 58.3272M53.4751 60.8512L57.8521 52.4582H58.413L54.035 60.8512H53.4751ZM53.2285 54.3597V54.8932C53.2285 55.9932 53.4885 56.4392 54.0495 56.4392C54.6105 56.4392 54.8566 55.9892 54.8566 54.8797V54.3392C54.8566 53.4022 54.6375 52.8687 54.0425 52.8687C53.4885 52.8757 53.2285 53.2997 53.2285 54.3597ZM55.424 54.3257V54.8797C55.424 56.0767 55.0821 56.9592 54.0285 56.9662C52.975 56.9732 52.647 56.1112 52.647 54.9002V54.3682C52.647 53.0482 53.1805 52.3642 54.047 52.3642C54.897 52.3572 55.422 52.9527 55.422 54.3272M51.489 53.0617H49.017C48.9625 53.9117 48.8256 55.4217 48.7641 56.0032C48.9038 55.792 49.0971 55.6218 49.3244 55.51C49.5516 55.3983 49.8045 55.349 50.0571 55.3672C51.3296 55.3672 51.8071 56.3797 51.8071 57.8502V58.1787C51.8071 59.6697 51.3831 60.9697 49.8371 60.9697C48.3801 60.9697 47.9901 59.9302 47.9491 58.9197V58.8857H48.6196V58.9402C48.6536 59.5402 48.8451 60.3902 49.8441 60.3902C50.8431 60.3902 51.1095 59.4402 51.1095 58.2627V57.9002C51.1095 56.8127 50.8635 55.9642 49.94 55.9642C49.208 55.9642 48.866 56.3952 48.6745 57.0517L48.052 56.9352C48.175 55.9297 48.36 53.5697 48.435 52.4752H51.5815L51.489 53.0617ZM43.1646 60.8527V60.7842C43.1646 59.8342 43.746 58.6842 44.9975 57.1727C45.9755 56.0227 46.2766 55.5447 46.2766 54.5597C46.2766 53.6567 46.044 52.9387 45.148 52.9387C44.341 52.9387 43.9785 53.5542 43.951 54.5327V54.6422H43.301V54.5257C43.308 53.4312 43.7865 52.3572 45.1685 52.3572C46.5505 52.3572 46.9686 53.3762 46.9686 54.5392C46.9686 55.7842 46.5651 56.3312 45.5936 57.4462C44.5471 58.6842 44.0405 59.6147 43.9245 60.2577H47.194L47.0916 60.8527H43.1646ZM41.5145 59.1972H42.1781V60.8662H41.5145V59.1972ZM37.301 55.8797V57.2797C37.301 59.3297 37.609 60.3647 38.58 60.3647C39.5105 60.3647 39.8526 59.4207 39.8526 57.2867V55.8982C39.8526 53.7482 39.4626 52.9567 38.5941 52.9567C37.7391 52.9637 37.301 53.6477 37.301 55.8777M40.523 55.8912V57.2867C40.523 59.8312 39.9415 60.9667 38.5665 60.9667C37.1575 60.9667 36.6241 59.7287 36.6241 57.2867V55.8912C36.6241 53.2372 37.39 52.3547 38.6075 52.3547C39.8935 52.3547 40.523 53.3737 40.523 55.8912ZM27.4021 56.4047C27.4021 55.1047 27.3951 54.7357 27.3885 54.4417H28.0246C28.0381 54.5917 28.052 54.8247 28.052 55.2832C28.1541 54.9878 28.3511 54.7345 28.6122 54.5626C28.8732 54.3908 29.1838 54.3101 29.4955 54.3332C30.2955 54.3332 31.0141 54.7642 31.0141 56.1392V60.8522H30.3521V56.2622C30.3521 55.4757 30.0715 54.9422 29.36 54.9422C28.4845 54.9422 28.0741 55.4962 28.0741 56.9667V60.8522H27.4106V56.4062L27.4021 56.4047ZM23.0105 57.1367V58.0532C23.0105 59.6267 23.4605 60.3722 24.2605 60.3722C25.0605 60.3722 25.5105 59.6542 25.5105 58.0397V57.1232C25.5105 55.7002 25.093 54.9277 24.2655 54.9277C23.4585 54.9277 23.007 55.5842 23.007 57.1372M26.181 57.1167V58.0127C26.181 59.9827 25.49 60.9677 24.252 60.9677C22.9795 60.9677 22.323 60.0177 22.323 58.0402V57.1232C22.323 55.2627 23.0615 54.3322 24.2795 54.3322C25.5245 54.3392 26.1796 55.2897 26.1796 57.1162M20.4406 51.8217H21.1021V53.0872H20.4455L20.4406 51.8217ZM20.4406 54.4417H21.1021V60.8577H20.4455L20.4406 54.4417ZM16.911 54.4417H17.7935V52.7317H18.4366V54.4417H19.5515V55.0302H18.4366V59.6062C18.4366 60.0372 18.5325 60.3657 19.004 60.3657C19.1643 60.3656 19.3244 60.3542 19.483 60.3317V60.8582C19.2656 60.9227 19.0393 60.9527 18.8125 60.9472C18.224 60.9472 17.7935 60.6802 17.7935 59.7502V55.0302H16.911V54.4417ZM16.097 59.1752C16.097 59.9207 16.097 60.5572 16.1105 60.8512H15.4881C15.4603 60.5671 15.4489 60.2816 15.454 59.9962C15.3648 60.2967 15.1743 60.5569 14.9149 60.7328C14.6555 60.9086 14.3432 60.9892 14.0311 60.9607C13.4221 60.9607 12.5466 60.7487 12.5466 59.1412V54.4352H13.2101V58.9772C13.2101 59.8732 13.47 60.3657 14.202 60.3657C14.879 60.3657 15.44 59.9417 15.44 58.4027V54.4422H16.1035V59.1757L16.097 59.1752ZM10.3716 51.8217H11.028V60.8577H10.3716V51.8217ZM5.98004 57.1367V58.0532C5.98004 59.6267 6.43004 60.3722 7.23004 60.3722C8.03004 60.3722 8.48004 59.6542 8.48004 58.0397V57.1232C8.48004 55.7002 8.06255 54.9277 7.23505 54.9277C6.42805 54.9277 5.97655 55.5842 5.97655 57.1372M9.15054 57.1167V58.0127C9.15054 59.9827 8.45954 60.9677 7.22154 60.9677C5.94904 60.9677 5.29254 60.0177 5.29254 58.0402V57.1232C5.29254 55.2627 6.03155 54.3322 7.24905 54.3322C8.49405 54.3392 9.14905 55.2897 9.14905 57.1162M1.55655 59.0382V59.1272C1.59755 59.9207 1.99455 60.3857 2.69205 60.3857C2.84109 60.3972 2.99081 60.3751 3.13019 60.321C3.26956 60.267 3.39505 60.1824 3.49742 60.0735C3.59979 59.9645 3.67643 59.834 3.72171 59.6915C3.76699 59.5491 3.77974 59.3983 3.75905 59.2502C3.75905 58.4907 3.40905 58.1627 2.58955 57.7797C1.47455 57.2667 1.08455 56.8222 1.08455 55.9397C1.06653 55.7235 1.09597 55.5059 1.17084 55.3022C1.2457 55.0985 1.36418 54.9136 1.51796 54.7605C1.67174 54.6074 1.85713 54.4897 2.06114 54.4157C2.26516 54.3418 2.48287 54.3133 2.69905 54.3322C3.94405 54.3322 4.30655 55.1872 4.31355 56.0217V56.1242H3.65704V56.0217C3.64354 55.5907 3.52705 54.9067 2.67905 54.9067C2.03605 54.9067 1.76254 55.3102 1.76254 55.8987C1.76254 56.4732 1.96754 56.7487 2.82954 57.1487C3.89654 57.6412 4.43704 58.0722 4.43704 59.1802C4.46304 59.4201 4.43492 59.6628 4.35474 59.8904C4.27455 60.118 4.14434 60.3248 3.97371 60.4954C3.80307 60.666 3.59635 60.7962 3.36874 60.8764C3.14114 60.9566 2.89846 60.9847 2.65855 60.9587C1.46155 60.9587 0.928055 60.1992 0.893555 59.1257V59.0367L1.55655 59.0382ZM80.4461 46.6572V46.6847C80.4256 47.2047 80.241 48.6547 78.6605 48.6547C77.217 48.6547 76.8071 47.3962 76.8071 45.7272V44.8722C76.8071 43.2577 77.354 42.0267 78.736 42.0267C80.289 42.0267 80.4461 43.4357 80.4461 43.9077V43.9967H79.7691V43.9422C79.7621 43.5522 79.646 42.6222 78.7295 42.6222C77.8265 42.6222 77.4845 43.5387 77.4845 44.8932V45.7482C77.4845 47.1232 77.8061 48.0737 78.6886 48.0737C79.5711 48.0737 79.749 47.2462 79.783 46.6987V46.6577L80.4461 46.6572ZM74.9191 39.5072H75.5755V40.7727H74.9191V39.5072ZM74.9191 42.1272H75.5755V48.5432H74.9191V42.1272ZM67.388 44.0272C67.388 42.9462 67.388 42.4472 67.3745 42.1322H68.0105C68.035 42.4005 68.0441 42.6699 68.038 42.9392C68.1292 42.6628 68.3082 42.4237 68.5477 42.2583C68.7872 42.0928 69.0742 42.0101 69.3651 42.0227C69.6479 41.9942 69.9312 42.0734 70.1582 42.2446C70.3852 42.4158 70.5392 42.6664 70.5896 42.9462C70.6972 42.6621 70.8924 42.4195 71.1469 42.2535C71.4014 42.0875 71.7021 42.0067 72.0055 42.0227C72.6965 42.0227 73.4145 42.3372 73.4145 43.7397V48.5397H72.758V43.8747C72.758 43.2182 72.594 42.6297 71.848 42.6297C70.998 42.6297 70.7261 43.4232 70.7261 44.2647V48.5397H70.0695V43.9157C70.0695 43.0657 69.8166 42.6367 69.1736 42.6367C68.3801 42.6367 68.038 43.4232 68.038 44.3812V48.5402H67.3815V44.0257L67.388 44.0272ZM65.2195 39.5057H65.8761V48.5417H65.2195V39.5057ZM63.065 45.3882C62.8659 45.3658 62.6654 45.3566 62.465 45.3607C61.3295 45.3607 60.815 45.9012 60.815 46.7607V46.7947C60.815 47.4717 61.123 48.0532 61.8205 48.0532C62.744 48.0532 63.0705 47.3762 63.0705 46.0077V45.3852L63.065 45.3882ZM63.701 47.5427C63.701 47.9872 63.7285 48.3842 63.7421 48.5427H63.142C63.1016 48.3054 63.081 48.065 63.0806 47.8242C62.9704 48.0942 62.7753 48.3211 62.5248 48.4704C62.2743 48.6197 61.982 48.6833 61.692 48.6517C60.5635 48.6517 60.16 47.7557 60.16 46.8392V46.8052C60.16 45.6152 60.91 44.8077 62.438 44.8077C62.7115 44.8077 62.869 44.8077 63.0605 44.8212V43.8212C63.0605 43.2397 62.9375 42.6102 62.0891 42.6102C61.1586 42.6102 61.07 43.2942 61.0425 43.7732V43.8417H60.3925V43.7732C60.413 42.8772 60.8165 42.0287 62.1095 42.0287C63.245 42.0287 63.7095 42.6582 63.7095 43.7387L63.701 47.5427ZM48.502 39.5092V42.9092C48.6188 42.6272 48.8222 42.3898 49.0829 42.2311C49.3436 42.0725 49.648 42.0009 49.952 42.0267C50.862 42.0267 51.452 42.6217 51.452 43.8802V48.5452H50.7885V44.0182C50.7885 43.2452 50.5835 42.6367 49.7695 42.6367C48.8325 42.6367 48.511 43.4167 48.511 44.6067V48.5467H47.847V39.5092H48.502ZM56.136 39.5092V42.9092C56.2528 42.6272 56.4562 42.3898 56.7169 42.2311C56.9776 42.0725 57.282 42.0009 57.586 42.0267C58.496 42.0267 59.086 42.6217 59.086 43.8802V48.5452H58.422V44.0182C58.422 43.2452 58.217 42.6367 57.403 42.6367C56.466 42.6367 56.1445 43.4167 56.1445 44.6067V48.5467H55.481V39.5092H56.136ZM51.9861 42.1292H52.8685V40.4182H53.5116V42.1282H54.6265V42.7182H53.5116V47.2942C53.5116 47.7252 53.6075 48.0537 54.079 48.0537C54.2393 48.0536 54.3994 48.0423 54.558 48.0197V48.5462C54.3406 48.6107 54.1143 48.6407 53.8875 48.6352C53.299 48.6352 52.8685 48.3682 52.8685 47.4382V42.7182H51.9861V42.1292ZM46.213 45.7292V44.8332C46.213 43.4102 45.83 42.6377 45.05 42.6377C44.024 42.6377 43.75 43.6092 43.75 45.0112V45.6407C43.75 46.9607 43.9001 48.0487 44.9816 48.0487C45.7956 48.0557 46.213 47.1387 46.213 45.7297M43.7706 47.8682V50.8642H43.114V44.0032C43.114 43.1207 43.114 42.5327 43.1005 42.1292H43.7365C43.75 42.2522 43.7641 42.6492 43.7641 42.9977C43.8604 42.6985 44.0542 42.4401 44.3146 42.264C44.575 42.0879 44.8869 42.0042 45.2005 42.0262C46.3155 42.0262 46.89 42.9567 46.89 44.8172V45.6927C46.89 47.6492 46.1581 48.6547 45.0571 48.6547C44.7859 48.6838 44.5127 48.6225 44.28 48.4803C44.0474 48.338 43.8682 48.1228 43.7706 47.8682ZM38.7206 44.8312V45.7477C38.7206 47.3212 39.1706 48.0667 39.9706 48.0667C40.7705 48.0667 41.2206 47.3487 41.2206 45.7342V44.8182C41.2206 43.3952 40.803 42.6227 39.9755 42.6227C39.1685 42.6227 38.717 43.2792 38.717 44.8322M41.8911 44.8117V45.7077C41.8911 47.6777 41.2001 48.6627 39.9621 48.6627C38.6896 48.6627 38.0331 47.7127 38.0331 45.7352V44.8182C38.0331 42.9577 38.772 42.0272 39.9895 42.0272C41.2345 42.0272 41.8895 42.9847 41.8895 44.8112M32.9971 44.3257C32.9971 43.3132 32.9971 42.6087 32.9836 42.1367H33.6196C33.6331 42.3282 33.647 42.6292 33.647 43.2517C33.7474 42.9087 33.9548 42.6067 34.2392 42.39C34.5235 42.1734 34.8697 42.0534 35.2271 42.0477V42.7932C34.1875 42.8432 33.6535 43.6432 33.6535 44.7632V48.5527H33.002L32.9971 44.3257ZM31.1501 44.8522V44.5647C31.1501 43.4772 30.9245 42.6147 29.987 42.6147C28.8515 42.6147 28.7626 44.0377 28.7491 44.5712V44.8587H31.149L31.1501 44.8522ZM28.7421 45.4132V45.7687C28.7421 47.0002 28.9675 48.0687 29.9595 48.0687C30.12 48.0642 30.278 48.0274 30.4239 47.9604C30.5698 47.8933 30.7006 47.7976 30.8086 47.6787C30.9166 47.5599 30.9994 47.4204 31.0521 47.2688C31.1049 47.1172 31.1265 46.9564 31.1156 46.7962V46.7757H31.772V46.7962C31.765 47.1517 31.567 48.6637 29.9525 48.6637C28.3655 48.6637 28.0851 47.2407 28.0851 45.7427V44.9182C28.0851 43.2012 28.6595 42.0317 30.007 42.0317C31.4711 42.0317 31.8195 43.2697 31.8195 44.6652C31.8195 44.8227 31.8195 45.1782 31.8125 45.4152H28.741L28.7421 45.4132ZM23.2491 44.0997C23.2491 42.7997 23.2421 42.4307 23.2355 42.1367H23.8716C23.8851 42.2867 23.899 42.5197 23.899 42.9782C24.0011 42.6828 24.1981 42.4294 24.4592 42.2576C24.7202 42.0858 25.0308 42.0051 25.3425 42.0282C26.1425 42.0282 26.8611 42.4592 26.8611 43.8342V48.5472H26.1906V43.9572C26.1906 43.1707 25.91 42.6372 25.1985 42.6372C24.323 42.6372 23.9126 43.1912 23.9126 44.6617V48.5472H23.2491V44.0997ZM21.0876 45.3927C20.8884 45.3703 20.6879 45.3611 20.4875 45.3652C19.352 45.3652 18.8376 45.9057 18.8376 46.7652V46.7992C18.8376 47.4762 19.1455 48.0577 19.843 48.0577C20.7665 48.0577 21.093 47.3807 21.093 46.0122V45.3897L21.0876 45.3927ZM21.7235 47.5472C21.7235 47.9917 21.751 48.3887 21.7645 48.5472H21.1555C21.1151 48.3098 21.0945 48.0695 21.0941 47.8287C20.9839 48.0988 20.7888 48.3256 20.5383 48.4749C20.2878 48.6242 19.9955 48.6878 19.7056 48.6562C18.5771 48.6562 18.1736 47.7602 18.1736 46.8437V46.8097C18.1736 45.6197 18.9236 44.8122 20.4516 44.8122C20.7251 44.8122 20.8826 44.8122 21.0741 44.8257V43.8257C21.0741 43.2442 20.9511 42.6147 20.1026 42.6147C19.1721 42.6147 19.0835 43.2987 19.056 43.7777V43.8462H18.4061V43.7777C18.4266 42.8817 18.83 42.0332 20.123 42.0332C21.2585 42.0332 21.7231 42.6627 21.7231 43.7432V47.5462L21.7235 47.5472ZM16.381 39.5097H17.0376V48.5457H16.381V39.5097ZM14.1855 39.5097H14.842V40.7752H14.1855V39.5097ZM14.1855 42.1297H14.842V48.5457H14.1855V42.1297ZM10.6561 42.1297H11.5385V40.4182H12.1815V42.1282H13.302V42.7182H12.187V47.2942C12.187 47.7252 12.283 48.0537 12.7545 48.0537C12.9148 48.0536 13.0749 48.0423 13.2336 48.0197V48.5462C13.0161 48.6107 12.7898 48.6407 12.563 48.6352C11.9745 48.6352 11.5441 48.3682 11.5441 47.4382V42.7182H10.6615L10.6561 42.1297ZM7.01004 44.8297V45.7462C7.01004 47.3197 7.46004 48.0652 8.26004 48.0652C9.06004 48.0652 9.51004 47.3472 9.51004 45.7327V44.8182C9.51004 43.3952 9.09255 42.6227 8.26505 42.6227C7.45805 42.6227 7.00655 43.2792 7.00655 44.8322M10.187 44.8117V45.7077C10.187 47.6777 9.49604 48.6627 8.25804 48.6627C6.98554 48.6627 6.32904 47.7127 6.32904 45.7352V44.8182C6.32904 42.9577 7.06805 42.0272 8.28555 42.0272C9.52355 42.0272 10.1855 42.9847 10.1855 44.8112M4.43954 39.5112H5.09605V48.5472H4.45204L4.43954 39.5112ZM3.37904 39.4702C2.33912 41.0347 1.80213 42.8796 1.84004 44.7577C1.80389 46.6849 2.33942 48.5796 3.37904 50.2027H2.71555C1.67961 48.5736 1.14884 46.6744 1.19005 44.7442C1.16318 42.8737 1.69427 41.0376 2.71555 39.4702H3.37904Z" fill="black"/>
<path d="M60.7415 7.80476C60.6337 8.033 60.4662 8.22784 60.2567 8.36867C60.0473 8.5095 59.8036 8.59107 59.5515 8.60475C59.5515 8.60475 59.825 11.3048 55.892 12.9548C52.889 14.2048 51.9385 14.3708 50.9465 15.6158C50.358 16.3613 50.358 16.5938 50.358 16.5938C51.432 15.0343 54.2775 14.2133 55.8305 13.7938C60.9745 12.4123 60.9745 8.64976 60.742 7.80176M76.0095 15.8733C75.8756 16.0096 75.7143 16.1161 75.5363 16.1857C75.3582 16.2552 75.1674 16.2863 74.9765 16.2768C74.9765 16.2768 74.265 19.2183 69.819 18.8353C68.1775 18.6508 66.009 18.6353 64.504 19.1568C64.1384 19.281 63.8125 19.5006 63.56 19.7928C65.195 18.8283 67.76 19.1223 69.347 19.4028C75.182 20.4423 76.372 17.1453 76.0095 15.8733ZM20.233 13.8048C21.7855 14.2223 24.633 15.0428 25.705 16.6048C25.705 16.6048 25.705 16.3723 25.1165 15.6268C24.1245 14.3768 23.174 14.2178 20.171 12.9658C16.231 11.3158 16.5115 8.61575 16.5115 8.61575C16.2595 8.60207 16.0158 8.5205 15.8063 8.37967C15.5969 8.23884 15.4293 8.044 15.3215 7.81576C15.096 8.65726 15.096 12.4193 20.233 13.8078M0.0610428 15.8803C0.194972 16.0166 0.35626 16.1231 0.534309 16.1927C0.712358 16.2622 0.903134 16.2933 1.09405 16.2838C1.09405 16.2838 1.80553 19.2253 6.25153 18.8423C7.89303 18.6578 10.0615 18.6423 11.5665 19.1638C11.9322 19.288 12.258 19.5076 12.5105 19.7998C10.8755 18.8353 8.31053 19.1293 6.72353 19.4098C0.888534 20.4493 -0.308457 17.1523 0.0610428 15.8803Z" fill="#DD8E7B"/>
<path d="M55.5569 12.0255C57.5474 11.054 58.6694 9.65899 58.8879 8.20849C59.0809 7.34404 59.036 6.44344 58.7579 5.60249C58.5401 6.24576 58.1614 6.82268 57.6579 7.27849C56.8234 8.27049 55.0859 9.20049 53.0954 10.172C51.1049 11.1435 49.9829 12.5385 49.7644 13.989C49.5714 14.8534 49.6164 15.754 49.8944 16.595C50.1123 15.9517 50.491 15.3748 50.9944 14.919C51.8289 13.927 53.5664 12.997 55.5569 12.0255ZM69.6139 18.1885C71.8094 18.1815 73.4104 17.429 74.2309 16.232C74.4906 15.9025 74.6712 15.5178 74.759 15.1075C74.8467 14.6973 74.8392 14.2724 74.737 13.8655C74.7505 13.886 74.7439 14.433 73.5329 14.878C72.3634 15.398 70.4069 15.473 68.2179 15.478C66.0289 15.483 64.4214 16.2375 63.6009 17.4345C63.3412 17.7641 63.1605 18.1488 63.0728 18.5592C62.9851 18.9695 62.9926 19.3945 63.0949 19.8015C63.0814 19.781 63.0879 19.234 64.2989 18.789C65.4684 18.2625 67.4179 18.1935 69.6139 18.1885ZM25.0699 14.9195C25.5719 15.3766 25.9503 15.9531 26.1699 16.5955C26.4486 15.7547 26.4936 14.8539 26.2999 13.9895C26.0809 12.5325 24.9594 11.144 22.9689 10.1725C20.9784 9.20099 19.2409 8.27249 18.4064 7.27899C17.9045 6.82189 17.5261 6.24538 17.3064 5.60299C17.0278 6.44382 16.9828 7.34459 17.1764 8.20899C17.3954 9.66599 18.5169 11.0545 20.5074 12.026C22.4979 12.9975 24.2354 13.926 25.0699 14.9195ZM7.84594 15.473C5.65044 15.466 3.70094 15.398 2.53094 14.873C1.32044 14.4285 1.32695 13.8605 1.32695 13.8605C1.05995 14.1275 0.971444 15.1055 1.83294 16.227C2.66044 17.431 4.26145 18.1835 6.44995 18.1835C8.63845 18.1835 10.5949 18.2585 11.7649 18.7835C12.9754 19.228 12.9689 19.796 12.9689 19.796C13.2359 19.529 13.3244 18.551 12.4629 17.4295C11.6419 16.2325 10.0414 15.4795 7.84594 15.473ZM38.5589 14.967C36.7348 10.1449 36.7348 4.82258 38.5589 0.000488281C40.3831 4.82258 40.3831 10.1449 38.5589 14.967Z" fill="#148196"/>
<path d="M79.5196 24.2962C79.7452 24.418 79.9323 24.6004 80.0601 24.8227C80.1931 25.0485 80.2622 25.3061 80.2601 25.5682C80.2622 25.8411 80.1933 26.1099 80.0601 26.3482C79.933 26.5745 79.746 26.7615 79.5196 26.8887C79.2853 27.0187 79.0217 27.087 78.7536 27.087C78.4856 27.087 78.222 27.0187 77.9876 26.8887C77.7612 26.7615 77.5743 26.5745 77.4471 26.3482C77.3139 26.1099 77.245 25.8411 77.2471 25.5682C77.245 25.3061 77.3141 25.0485 77.4471 24.8227C77.5768 24.6019 77.7635 24.42 77.9876 24.2962C78.2219 24.1667 78.486 24.1006 78.7536 24.1047C79.021 24.1031 79.2845 24.169 79.5196 24.2962ZM79.5126 26.3417C79.6126 26.2401 79.6908 26.1191 79.7424 25.9861C79.794 25.8532 79.8179 25.7112 79.8126 25.5687C79.8145 25.3833 79.7648 25.201 79.6691 25.0422C79.5757 24.8861 79.4438 24.7567 79.2861 24.6662C79.1202 24.5764 78.9345 24.5294 78.7459 24.5294C78.5573 24.5294 78.3715 24.5764 78.2056 24.6662C78.0464 24.7547 77.9141 24.8846 77.8226 25.0422C77.7319 25.2028 77.6847 25.3842 77.6856 25.5687C77.6812 25.7121 77.7056 25.855 77.7571 25.9889C77.8086 26.1228 77.8863 26.2451 77.9856 26.3487C78.0842 26.449 78.2027 26.5276 78.3335 26.5793C78.4644 26.631 78.6046 26.6546 78.7451 26.6487C78.8874 26.6542 79.0293 26.6297 79.1615 26.5768C79.2938 26.5239 79.4134 26.4438 79.5126 26.3417ZM79.1021 25.6852C79.0816 25.6922 79.0746 25.7057 79.0886 25.7262L79.2461 26.1642C79.2525 26.1743 79.2549 26.1864 79.2531 26.1982C79.2531 26.2392 79.2256 26.2667 79.1711 26.2667H78.9866C78.9643 26.2674 78.9424 26.2602 78.9249 26.2464C78.9073 26.2326 78.8952 26.213 78.8906 26.1912L78.7471 25.7737C78.7454 25.7659 78.7412 25.7589 78.735 25.7539C78.7288 25.7489 78.7211 25.7462 78.7131 25.7462H78.6996C78.6721 25.7462 78.6656 25.7597 78.6656 25.7802V26.1702C78.6669 26.1819 78.665 26.1938 78.6602 26.2047C78.6554 26.2155 78.6478 26.2248 78.6381 26.2317C78.6303 26.2403 78.6209 26.2472 78.6103 26.2519C78.5997 26.2566 78.5882 26.2591 78.5766 26.2592H78.4126C78.4009 26.2605 78.3889 26.2586 78.3781 26.2538C78.3673 26.2489 78.358 26.2413 78.3511 26.2317C78.3425 26.2239 78.3357 26.2144 78.3309 26.2038C78.3262 26.1932 78.3237 26.1818 78.3236 26.1702V24.9802C78.3223 24.9684 78.3242 24.9565 78.329 24.9457C78.3339 24.9349 78.3415 24.9255 78.3511 24.9187C78.3589 24.9101 78.3684 24.9032 78.379 24.8984C78.3895 24.8937 78.401 24.8912 78.4126 24.8912H78.8501C78.9082 24.8889 78.9661 24.8987 79.0202 24.9199C79.0743 24.941 79.1235 24.9731 79.1646 25.0142C79.205 25.0544 79.2368 25.1025 79.258 25.1554C79.2791 25.2084 79.2892 25.2652 79.2876 25.3222C79.2912 25.3935 79.2759 25.4646 79.2433 25.5282C79.2108 25.5918 79.1621 25.6463 79.1021 25.6852ZM78.6576 25.2352V25.4542C78.6576 25.4817 78.6711 25.4882 78.6916 25.4882H78.7876C78.8281 25.4893 78.8674 25.4746 78.8971 25.4472C78.9106 25.4338 78.9212 25.4178 78.9282 25.4002C78.9353 25.3825 78.9386 25.3636 78.9381 25.3447C78.9392 25.3042 78.9245 25.2649 78.8971 25.2352C78.8828 25.2211 78.8656 25.2102 78.8467 25.2031C78.8279 25.196 78.8077 25.193 78.7876 25.1942H78.6916C78.6716 25.1922 78.6576 25.2047 78.6576 25.2332V25.2352Z" fill="#071D30"/>
</g>
<defs>
<clipPath id="clip0_910_268">
<rect width="80.455" height="62.5" fill="white"/>
</clipPath>
</defs>
</svg>
