<svg width="15" height="16" viewBox="0 0 15 16" fill="none" xmlns="http://www.w3.org/2000/svg">
<path d="M14.4985 8.50936C14.5055 7.97183 14.2143 7.47779 13.7415 7.21848L2.72258 1.16438C2.22904 0.885442 1.64725 0.919711 1.18219 1.23728C0.708601 1.56019 0.466197 2.3289 0.598587 2.8841L1.62725 7.1938C1.73285 7.63572 2.12837 7.9469 2.5834 7.94495L8.71539 7.92593C9.0294 7.91963 9.28407 8.17429 9.27777 8.48831C9.27681 8.79698 9.0259 9.04789 8.71189 9.05419L2.57406 9.06844C2.11903 9.06932 1.72158 9.38189 1.61323 9.82447L0.548197 14.1513C0.418884 14.6626 0.566315 15.1731 0.927087 15.5338C0.969531 15.5763 1.01728 15.624 1.06506 15.6611C1.53227 16.0216 2.14415 16.0676 2.66657 15.7892L13.7229 9.79435C14.1973 9.54275 14.4915 9.0469 14.4985 8.50936Z" fill="#001E45" fill-opacity="0.2"/>
</svg>
